<?xml version="1.0" encoding="UTF-8"?>
<!-- Created with Inkscape (http://www.inkscape.org/) -->
<svg width="48" height="48" version="1.1" viewBox="0 0 48 48" xmlns="http://www.w3.org/2000/svg">
 <path d="m15.43 38.847-8.5133-4.9191v-19.847l8.5133-4.9194c4.6823-2.7057 8.5424-4.9179 8.5778-4.916 0.03547 0.0019 3.8955 2.2155 8.5778 4.9192l8.5133 4.9157 0.01632 9.9068 0.01633 9.9068-8.5229 4.9254c-4.6876 2.709-8.555 4.9302-8.5942 4.9361-0.0392 0.0059-3.9023-2.2029-8.5846-4.9084z" fill="#fff" stroke-linecap="round" stroke-linejoin="round" stroke-width="4"/>
 <path d="m23.991 0.0032398-20.779 12.005 0.00872 23.999 20.787 11.99 20.779-12.005-0.0087-23.999zm0.0022 5.3314 16.169 9.3272 0.0066 18.665-16.162 9.3381-16.169-9.3272-0.00654-18.665z" fill="#32004b" stroke-linecap="round" stroke-linejoin="round" stroke-width=".1"/>
 <path d="m34.333 25.703q0 1.3163-0.5453 2.4821-0.5453 1.147-1.2786 2.0308-0.71454 0.88377-1.2222 1.3915l-4.2308 4.2496h-12.974l-0.41368-1.2222 3.0086-3.2154h8.5744q3.1966 0 4.8513-0.82736 1.6735-0.84616 1.6359-2.5009-0.0188-0.77095-0.62052-1.2786-0.58291-0.5077-1.3539-0.75214t-1.3163-0.24445q-1.5043-0.03761-3.5163 0.0188-1.9932 0.05641-4.1744 0.05641-1.4103 0-2.5949-0.71454-1.1658-0.73334-1.8804-1.824-0.69573-1.1094-0.69573-2.2188 0-1.4103 0.5265-2.5949 0.5453-1.2034 1.7299-2.5761 1.2034-1.3727 3.159-3.3282 0.48889-0.48889 1.2222-1.0718 0.73334-0.60172 1.2034-0.60172 0.41368 0 1.4855 0.28205 1.0906 0.28206 2.3693 0.63932 1.2974 0.35727 2.3505 0.63932 1.0718 0.28205 1.4479 0.28205 0.43248 0 0.86497-0.09402 0.45129-0.11282 0.75214-0.30086l0.5453 0.5453-3.5163 4.024q-0.16923 0.18804-0.5077 0.22564-0.33846 0.03761-0.65813 0.03761-0.33846 0-1.4103-0.28205-1.053-0.30086-2.3693-0.67693-1.2974-0.39488-2.4069-0.67693-1.0906-0.30086-1.5043-0.30086-0.31966 0-0.95898 0.43248-0.63932 0.41368-1.1658 1.053-0.5265 0.63932-0.5265 1.2598 0 0.62052 0.31966 1.3539 0.31966 0.73334 1.1846 1.2786 0.88377 0.5265 2.5761 0.5265h6.5061q0.78975 0 1.7299 0.20684 0.95898 0.18804 1.824 0.69573 0.86497 0.48889 1.4103 1.3727 0.56411 0.86497 0.56411 2.2188z" aria-label="ð”–"/>
</svg>
